<svg width="115" height="120" viewBox="0 0 115 120" fill="none" xmlns="http://www.w3.org/2000/svg">
<g filter="url(#filter0_f_208_969)">
<path d="M71.9611 73.6444C70.6539 66.779 64.7189 61.5976 57.591 61.5976C50.463 61.5976 44.528 66.779 43.2209 73.6444C42.9375 75.126 44.0881 76.5 45.5687 76.5H69.6091C71.0939 76.5 72.2403 75.1303 71.9569 73.6444H71.9611Z" fill="url(#paint0_linear_208_969)"/>
<path d="M57.5908 58.096C61.6045 58.096 64.8583 54.7831 64.8583 50.6965C64.8583 46.6099 61.6045 43.297 57.5908 43.297C53.577 43.297 50.3232 46.6099 50.3232 50.6965C50.3232 54.7831 53.577 58.096 57.5908 58.096Z" fill="url(#paint1_linear_208_969)"/>
</g>
<path d="M71.9607 73.1257C70.6455 66.2153 64.6739 61 57.5021 61C50.3302 61 44.3586 66.2153 43.0434 73.1257C42.7582 74.617 43.9159 76 45.4057 76H69.5942C71.0882 76 72.2416 74.6214 71.9565 73.1257H71.9607Z" fill="url(#paint2_linear_208_969)"/>
<path d="M57.5 58C61.6421 58 65 54.6421 65 50.5C65 46.3579 61.6421 43 57.5 43C53.3579 43 50 46.3579 50 50.5C50 54.6421 53.3579 58 57.5 58Z" fill="url(#paint3_linear_208_969)"/>
<g filter="url(#filter1_b_208_969)">
<path d="M52.0873 72.9208C50.446 64.3154 43.005 57.816 34.0708 57.816C25.1365 57.816 17.6955 64.3154 16.0542 72.9208C15.6989 74.7815 17.1372 76.5 18.9985 76.5H49.1389C51.0002 76.5 52.4384 74.7815 52.0831 72.9208H52.0873Z" fill="url(#paint4_linear_208_969)"/>
<path d="M34.0708 58.066C42.7767 58.066 50.0501 64.3258 51.7826 72.6708H51.7808L51.8375 72.9677C52.1634 74.6742 50.8433 76.25 49.1389 76.25H18.9985C17.294 76.25 15.9739 74.6742 16.2998 72.9677L16.2998 72.9677C17.9197 64.4747 25.2619 58.066 34.0708 58.066Z" stroke="url(#paint5_linear_208_969)" stroke-width="0.5"/>
</g>
<g filter="url(#filter2_b_208_969)">
<path d="M36.1568 53.1803C41.0523 52.0038 44.0843 47.0095 42.9288 42.0251C41.7734 37.0407 36.8681 33.9537 31.9725 35.1301C27.077 36.3065 24.0451 41.3009 25.2005 46.2853C26.356 51.2697 31.2613 54.3567 36.1568 53.1803Z" fill="url(#paint6_linear_208_969)"/>
<path d="M42.6857 42.0835C43.8109 46.9371 40.8579 51.7934 36.1003 52.9367C31.3427 54.08 26.5687 51.0805 25.4436 46.2269C24.3185 41.3733 27.2714 36.5169 32.029 35.3736C36.7866 34.2304 41.5606 37.2299 42.6857 42.0835Z" stroke="url(#paint7_linear_208_969)" stroke-width="0.5"/>
</g>
<defs>
<filter id="filter0_f_208_969" x="0.177734" y="0.297021" width="114.822" height="119.203" filterUnits="userSpaceOnUse" color-interpolation-filters="sRGB">
<feFlood flood-opacity="0" result="BackgroundImageFix"/>
<feBlend mode="normal" in="SourceGraphic" in2="BackgroundImageFix" result="shape"/>
<feGaussianBlur stdDeviation="21.5" result="effect1_foregroundBlur_208_969"/>
</filter>
<filter id="filter1_b_208_969" x="-2" y="39.816" width="72.1372" height="54.684" filterUnits="userSpaceOnUse" color-interpolation-filters="sRGB">
<feFlood flood-opacity="0" result="BackgroundImageFix"/>
<feGaussianBlur in="BackgroundImageFix" stdDeviation="9"/>
<feComposite in2="SourceAlpha" operator="in" result="effect1_backgroundBlur_208_969"/>
<feBlend mode="normal" in="SourceGraphic" in2="effect1_backgroundBlur_208_969" result="shape"/>
</filter>
<filter id="filter2_b_208_969" x="6.95508" y="16.88" width="54.2192" height="54.5503" filterUnits="userSpaceOnUse" color-interpolation-filters="sRGB">
<feFlood flood-opacity="0" result="BackgroundImageFix"/>
<feGaussianBlur in="BackgroundImageFix" stdDeviation="9"/>
<feComposite in2="SourceAlpha" operator="in" result="effect1_backgroundBlur_208_969"/>
<feBlend mode="normal" in="SourceGraphic" in2="effect1_backgroundBlur_208_969" result="shape"/>
</filter>
<linearGradient id="paint0_linear_208_969" x1="57.591" y1="84.7006" x2="57.591" y2="39.8944" gradientUnits="userSpaceOnUse">
<stop stop-color="#F6005A"/>
<stop offset="1" stop-color="#F7CBAD"/>
</linearGradient>
<linearGradient id="paint1_linear_208_969" x1="57.5908" y1="-151.058" x2="57.5908" y2="39.8945" gradientUnits="userSpaceOnUse">
<stop stop-color="#F6005A"/>
<stop offset="1" stop-color="#F7CBAD"/>
</linearGradient>
<linearGradient id="paint2_linear_208_969" x1="57.5021" y1="84.2543" x2="57.5021" y2="39.1546" gradientUnits="userSpaceOnUse">
<stop stop-color="#F6005A"/>
<stop offset="1" stop-color="#F7CBAD"/>
</linearGradient>
<linearGradient id="paint3_linear_208_969" x1="57.5" y1="-153.995" x2="57.5" y2="39.5512" gradientUnits="userSpaceOnUse">
<stop stop-color="#F6005A"/>
<stop offset="1" stop-color="#F7CBAD"/>
</linearGradient>
<linearGradient id="paint4_linear_208_969" x1="18.0402" y1="75.4452" x2="31.5638" y2="49.2886" gradientUnits="userSpaceOnUse">
<stop stop-color="white" stop-opacity="0.2"/>
<stop offset="1" stop-color="white" stop-opacity="0.49"/>
</linearGradient>
<linearGradient id="paint5_linear_208_969" x1="18.5509" y1="59.2855" x2="30.8201" y2="84.6587" gradientUnits="userSpaceOnUse">
<stop stop-color="white"/>
<stop offset="1" stop-color="white" stop-opacity="0"/>
</linearGradient>
<linearGradient id="paint6_linear_208_969" x1="28.0573" y1="54.0508" x2="40.3874" y2="34.458" gradientUnits="userSpaceOnUse">
<stop stop-color="white" stop-opacity="0.2"/>
<stop offset="1" stop-color="white" stop-opacity="0.49"/>
</linearGradient>
<linearGradient id="paint7_linear_208_969" x1="24.6889" y1="38.3791" x2="43.4513" y2="50.6394" gradientUnits="userSpaceOnUse">
<stop stop-color="white"/>
<stop offset="1" stop-color="white" stop-opacity="0"/>
</linearGradient>
</defs>
</svg>
