<svg width="137" height="117" viewBox="0 0 137 117" fill="none" xmlns="http://www.w3.org/2000/svg">
<g filter="url(#filter0_f_208_895)">
<path d="M90.3965 42H75.1985C73.4399 42 72.0142 43.5822 72.0142 45.534V70.3784C72.0142 72.3302 73.4399 73.9124 75.1985 73.9124H90.3965C92.1552 73.9124 93.5809 72.3302 93.5809 70.3784V45.534C93.5809 43.5822 92.1552 42 90.3965 42Z" fill="url(#paint0_linear_208_895)"/>
<path d="M61.3838 42H46.1858C44.4272 42 43.0015 43.5822 43.0015 45.534V70.3784C43.0015 72.3302 44.4272 73.9124 46.1858 73.9124H61.3838C63.1425 73.9124 64.5682 72.3302 64.5682 70.3784V45.534C64.5682 43.5822 63.1425 42 61.3838 42Z" fill="url(#paint1_linear_208_895)"/>
</g>
<path d="M95.4741 47.6915H78.6472C76.7001 47.6915 75.1216 49.2737 75.1216 51.2255V76.07C75.1216 78.0217 76.7001 79.6039 78.6472 79.6039H95.4741C97.4213 79.6039 98.9997 78.0217 98.9997 76.07V51.2255C98.9997 49.2737 97.4213 47.6915 95.4741 47.6915Z" fill="url(#paint2_linear_208_895)"/>
<path d="M63.3525 47.6915H46.5257C44.5785 47.6915 43 49.2737 43 51.2255V76.07C43 78.0217 44.5785 79.6039 46.5257 79.6039H63.3525C65.2997 79.6039 66.8782 78.0217 66.8782 76.07V51.2255C66.8782 49.2737 65.2997 47.6915 63.3525 47.6915Z" fill="url(#paint3_linear_208_895)"/>
<g filter="url(#filter1_b_208_895)">
<path d="M88.1042 47H52.8959C50.192 47 48 48.2057 48 49.6929V77.307C48 78.7943 50.192 80 52.8959 80H88.1042C90.8081 80 93 78.7943 93 77.307V49.6929C93 48.2057 90.8081 47 88.1042 47Z" fill="url(#paint4_linear_208_895)"/>
<path d="M52.8959 47.25H88.1042C89.4222 47.25 90.6031 47.5444 91.4456 48.0078C92.297 48.4761 92.75 49.0826 92.75 49.6929V77.307C92.75 77.9174 92.297 78.5238 91.4456 78.9922C90.6031 79.4556 89.4222 79.75 88.1042 79.75H52.8959C51.5778 79.75 50.3969 79.4556 49.5545 78.9922C48.703 78.5238 48.25 77.9174 48.25 77.307V49.6929C48.25 49.0826 48.703 48.4761 49.5545 48.0078C50.3969 47.5444 51.5778 47.25 52.8959 47.25Z" stroke="url(#paint5_linear_208_895)" stroke-width="0.5"/>
</g>
<path d="M60.2067 58.1068C60.2067 55.0326 55 50.3037 55 54.9447C55 56.5442 55.6621 58.1068 57.1694 58.1068H60.2067ZM60.2067 58.1068C60.2067 55.0326 65.4133 50.3037 65.4133 54.9447C65.4133 56.5442 64.7512 58.1068 63.2439 58.1068H60.2067ZM60.2067 58.1068L65.4133 63.6222M60.2067 58.1068L55 63.6222" stroke="white" stroke-width="1.5" stroke-linecap="round" stroke-linejoin="round"/>
<rect x="48" y="57" width="45" height="2" fill="white"/>
<rect x="59" y="80" width="33" height="2" transform="rotate(-90 59 80)" fill="white"/>
<defs>
<filter id="filter0_f_208_895" x="0.00146484" y="-1" width="136.58" height="117.912" filterUnits="userSpaceOnUse" color-interpolation-filters="sRGB">
<feFlood flood-opacity="0" result="BackgroundImageFix"/>
<feBlend mode="normal" in="SourceGraphic" in2="BackgroundImageFix" result="shape"/>
<feGaussianBlur stdDeviation="21.5" result="effect1_foregroundBlur_208_895"/>
</filter>
<filter id="filter1_b_208_895" x="30" y="29" width="81" height="69" filterUnits="userSpaceOnUse" color-interpolation-filters="sRGB">
<feFlood flood-opacity="0" result="BackgroundImageFix"/>
<feGaussianBlur in="BackgroundImageFix" stdDeviation="9"/>
<feComposite in2="SourceAlpha" operator="in" result="effect1_backgroundBlur_208_895"/>
<feBlend mode="normal" in="SourceGraphic" in2="effect1_backgroundBlur_208_895" result="shape"/>
</filter>
<linearGradient id="paint0_linear_208_895" x1="47.0919" y1="81.19" x2="98.9501" y2="53.7903" gradientUnits="userSpaceOnUse">
<stop stop-color="#7C00FF"/>
<stop offset="0.52" stop-color="#FF6700"/>
<stop offset="1" stop-color="#FFD400"/>
</linearGradient>
<linearGradient id="paint1_linear_208_895" x1="39.6709" y1="67.1413" x2="91.5262" y2="39.7377" gradientUnits="userSpaceOnUse">
<stop stop-color="#7C00FF"/>
<stop offset="0.52" stop-color="#FF6700"/>
<stop offset="1" stop-color="#FFD400"/>
</linearGradient>
<linearGradient id="paint2_linear_208_895" x1="47.5283" y1="86.8816" x2="102.248" y2="54.8716" gradientUnits="userSpaceOnUse">
<stop stop-color="#7C00FF"/>
<stop offset="0.52" stop-color="#FF6700"/>
<stop offset="1" stop-color="#FFD400"/>
</linearGradient>
<linearGradient id="paint3_linear_208_895" x1="39.3125" y1="72.8328" x2="94.0278" y2="40.8188" gradientUnits="userSpaceOnUse">
<stop stop-color="#7C00FF"/>
<stop offset="0.52" stop-color="#FF6700"/>
<stop offset="1" stop-color="#FFD400"/>
</linearGradient>
<linearGradient id="paint4_linear_208_895" x1="50.5405" y1="78.137" x2="78.4607" y2="40.0639" gradientUnits="userSpaceOnUse">
<stop stop-color="white" stop-opacity="0.2"/>
<stop offset="1" stop-color="white" stop-opacity="0.49"/>
</linearGradient>
<linearGradient id="paint5_linear_208_895" x1="51.1765" y1="49.5954" x2="76.9676" y2="87.1999" gradientUnits="userSpaceOnUse">
<stop stop-color="white"/>
<stop offset="1" stop-color="white" stop-opacity="0"/>
</linearGradient>
</defs>
</svg>
