<svg width="138" height="119" viewBox="0 0 138 132" fill="none" xmlns="http://www.w3.org/2000/svg">
<g filter="url(#filter0_f_208_910)">
<path d="M70.781 60.4149C72.2783 61.9285 72.3681 64.3807 73.1339 66.2447C73.9253 68.1778 75.5466 69.9899 75.5466 72.0485C75.5466 74.1071 73.9253 75.9192 73.1339 77.8524C72.3724 79.7164 72.2825 82.1642 70.781 83.6822C69.2794 85.2002 66.8581 85.2867 65.0143 86.0608C63.1021 86.8609 61.3096 88.5 59.2733 88.5C57.237 88.5 55.4445 86.8609 53.5323 86.0608C51.6885 85.291 49.2672 85.2002 47.7656 83.6822C46.2684 82.1685 46.1785 79.7164 45.4128 77.8524C44.647 75.9884 43 74.1071 43 72.0485C43 69.9899 44.6213 68.1778 45.4128 66.2447C46.1742 64.3807 46.2641 61.9329 47.7656 60.4149C49.2629 58.9012 51.6885 58.8104 53.5323 58.0362C55.4445 57.2361 57.237 55.597 59.2733 55.597C61.3096 55.597 63.1021 57.2361 65.0143 58.0362C66.8581 58.806 69.2794 58.8969 70.781 60.4149Z" fill="url(#paint0_linear_208_910)"/>
</g>
<g filter="url(#filter1_f_208_910)">
<path d="M94.9983 50.2689C95.0453 51.6572 94.0186 52.8551 93.5694 54.079C93.0989 55.3462 93.0775 56.9291 92.1791 57.9021C91.2807 58.8752 89.7193 59.0093 88.5044 59.5715C87.3279 60.1121 86.2199 61.2322 84.8467 61.2841C83.4735 61.336 82.2885 60.2938 81.0778 59.8396C79.8672 59.3855 78.2587 59.3423 77.2961 58.4341C76.3336 57.5259 76.201 55.9473 75.6448 54.7191C75.1101 53.5298 74.0021 52.4097 73.9508 51.0214C73.9037 49.6332 74.9304 48.4352 75.3796 47.2113C75.8502 45.9441 75.8716 44.3613 76.77 43.3882C77.6683 42.4151 79.2298 42.281 80.4447 41.7188C81.6169 41.1739 82.7291 40.0538 84.0981 40.0019C85.467 39.95 86.6563 40.9922 87.8669 41.4463C89.0776 41.9004 90.6861 41.9437 91.6487 42.8519C92.6112 43.7601 92.7438 45.3387 93.2999 46.5669C93.8347 47.7562 94.9427 48.8763 94.994 50.2646L94.9983 50.2689Z" fill="url(#paint1_linear_208_910)"/>
</g>
<path d="M70.781 60.4149C72.2783 61.9285 72.3681 64.3807 73.1339 66.2447C73.9253 68.1778 75.5466 69.9899 75.5466 72.0485C75.5466 74.1071 73.9253 75.9192 73.1339 77.8524C72.3724 79.7164 72.2825 82.1642 70.781 83.6822C69.2794 85.2002 66.8581 85.2867 65.0143 86.0608C63.1021 86.8609 61.3096 88.5 59.2733 88.5C57.237 88.5 55.4445 86.8609 53.5323 86.0608C51.6885 85.291 49.2672 85.2002 47.7656 83.6822C46.2684 82.1685 46.1785 79.7164 45.4128 77.8524C44.647 75.9884 43 74.1071 43 72.0485C43 69.9899 44.6213 68.1778 45.4128 66.2447C46.1742 64.3807 46.2641 61.9329 47.7656 60.4149C49.2629 58.9012 51.6885 58.8104 53.5323 58.0362C55.4445 57.2361 57.237 55.597 59.2733 55.597C61.3096 55.597 63.1021 57.2361 65.0143 58.0362C66.8581 58.806 69.2794 58.8969 70.781 60.4149Z" fill="url(#paint2_linear_208_910)"/>
<path d="M95.0491 50.2689C95.0961 51.6572 94.0694 52.8551 93.6202 54.079C93.1497 55.3462 93.1283 56.9291 92.2299 57.9021C91.3315 58.8752 89.7701 59.0093 88.5551 59.5715C87.3787 60.1121 86.2707 61.2322 84.8975 61.2841C83.5243 61.336 82.3393 60.2938 81.1286 59.8396C79.918 59.3855 78.3095 59.3423 77.3469 58.4341C76.3844 57.5259 76.2518 55.9473 75.6956 54.7191C75.1609 53.5298 74.0529 52.4097 74.0016 51.0214C73.9545 49.6332 74.9812 48.4352 75.4304 47.2113C75.901 45.9441 75.9224 44.3613 76.8207 43.3882C77.7191 42.4151 79.2806 42.281 80.4955 41.7188C81.6676 41.1739 82.7799 40.0538 84.1489 40.0019C85.5178 39.95 86.7071 40.9922 87.9177 41.4463C89.1284 41.9004 90.7369 41.9437 91.6994 42.8519C92.662 43.7601 92.7946 45.3387 93.3507 46.5669C93.8855 47.7562 94.9935 48.8763 95.0448 50.2646L95.0491 50.2689Z" fill="url(#paint3_linear_208_910)"/>
<g filter="url(#filter2_b_208_910)">
<path d="M79.6514 49C83.3119 49 86.6674 50.3836 88.4977 53.1509C95.5137 62.8363 97.039 77.5027 92.1582 80.5467C86.9725 83.5907 76.2959 70.3078 70.5 70.3078C64.7041 70.3078 53.7225 83.5907 48.8418 80.5467C43.961 77.5027 45.4863 62.8363 52.5023 53.1509C54.3326 50.3836 57.6881 49 61.3486 49H79.6514Z" fill="url(#paint4_linear_208_910)"/>
<path d="M88.0807 53.4267L88.0865 53.4356L88.0928 53.4442C91.5461 58.2113 93.654 64.2174 94.293 69.4005C94.6125 71.9917 94.5617 74.3528 94.1438 76.2356C93.7242 78.1267 92.953 79.4587 91.8994 80.1189C90.823 80.747 89.3881 80.5747 87.6062 79.7749C85.8386 78.9816 83.875 77.636 81.852 76.1644C81.3812 75.8219 80.907 75.4725 80.4322 75.1226C78.8855 73.9828 77.3326 72.8383 75.8669 71.9129C73.9695 70.715 72.1066 69.8078 70.5 69.8078C68.8947 69.8078 67.0132 70.7139 65.0926 71.9114C63.5819 72.8534 61.9785 74.0219 60.3865 75.1821C59.9344 75.5116 59.4832 75.8404 59.0354 76.1631C56.9926 77.6352 55.0187 78.9816 53.2638 79.7755C51.4848 80.5803 50.0985 80.7412 49.1064 80.1224C48.0498 79.4635 47.2766 78.1301 46.8562 76.2356C46.4383 74.3528 46.3875 71.9917 46.707 69.4005C47.346 64.2174 49.4539 58.2113 52.9072 53.4442L52.9135 53.4356L52.9193 53.4267C54.6307 50.8393 57.8017 49.5 61.3486 49.5H79.6514C83.1983 49.5 86.3693 50.8393 88.0807 53.4267Z" stroke="url(#paint5_linear_208_910)"/>
</g>
<rect x="58" y="57" width="4" height="9" fill="white"/>
<rect x="55" y="63" width="3" height="10" transform="rotate(-90 55 63)" fill="white"/>
<circle cx="77.5" cy="64.5" r="2.5" fill="white"/>
<circle cx="82.5" cy="58.5" r="2.5" fill="white"/>
<defs>
<filter id="filter0_f_208_910" x="0" y="12.597" width="118.546" height="118.903" filterUnits="userSpaceOnUse" color-interpolation-filters="sRGB">
<feFlood flood-opacity="0" result="BackgroundImageFix"/>
<feBlend mode="normal" in="SourceGraphic" in2="BackgroundImageFix" result="shape"/>
<feGaussianBlur stdDeviation="21.5" result="effect1_foregroundBlur_208_910"/>
</filter>
<filter id="filter1_f_208_910" x="30.9492" y="-3" width="107.051" height="107.286" filterUnits="userSpaceOnUse" color-interpolation-filters="sRGB">
<feFlood flood-opacity="0" result="BackgroundImageFix"/>
<feBlend mode="normal" in="SourceGraphic" in2="BackgroundImageFix" result="shape"/>
<feGaussianBlur stdDeviation="21.5" result="effect1_foregroundBlur_208_910"/>
</filter>
<filter id="filter2_b_208_910" x="28" y="31" width="85" height="68" filterUnits="userSpaceOnUse" color-interpolation-filters="sRGB">
<feFlood flood-opacity="0" result="BackgroundImageFix"/>
<feGaussianBlur in="BackgroundImageFix" stdDeviation="9"/>
<feComposite in2="SourceAlpha" operator="in" result="effect1_backgroundBlur_208_910"/>
<feBlend mode="normal" in="SourceGraphic" in2="effect1_backgroundBlur_208_910" result="shape"/>
</filter>
<linearGradient id="paint0_linear_208_910" x1="66.8795" y1="59.2126" x2="51.5264" y2="84.5641" gradientUnits="userSpaceOnUse">
<stop stop-color="#10994D"/>
<stop offset="1" stop-color="#00FF79"/>
</linearGradient>
<linearGradient id="paint1_linear_208_910" x1="93.5811" y1="47.9253" x2="75.2641" y2="53.1559" gradientUnits="userSpaceOnUse">
<stop stop-color="#10E4E2"/>
<stop offset="1" stop-color="#00FF79"/>
</linearGradient>
<linearGradient id="paint2_linear_208_910" x1="66.8795" y1="59.2126" x2="51.5264" y2="84.5641" gradientUnits="userSpaceOnUse">
<stop stop-color="#10994D"/>
<stop offset="1" stop-color="#00FF79"/>
</linearGradient>
<linearGradient id="paint3_linear_208_910" x1="93.6318" y1="47.9253" x2="75.3148" y2="53.1559" gradientUnits="userSpaceOnUse">
<stop stop-color="#10E4E2"/>
<stop offset="1" stop-color="#00FF79"/>
</linearGradient>
<linearGradient id="paint4_linear_208_910" x1="48.7663" y1="79.1934" x2="74.7579" y2="39.3938" gradientUnits="userSpaceOnUse">
<stop stop-color="white" stop-opacity="0.2"/>
<stop offset="1" stop-color="white" stop-opacity="0.49"/>
</linearGradient>
<linearGradient id="paint5_linear_208_910" x1="48.7663" y1="79.1934" x2="74.7579" y2="39.3938" gradientUnits="userSpaceOnUse">
<stop stop-color="white" stop-opacity="0.2"/>
<stop offset="1" stop-color="white" stop-opacity="0.49"/>
</linearGradient>
</defs>
</svg>
